<?xml version="1.0" standalone="no"?>
<!DOCTYPE svg PUBLIC "-//W3C//DTD SVG 20010904//EN"
 "http://www.w3.org/TR/2001/REC-SVG-20010904/DTD/svg10.dtd">
<svg version="1.0" xmlns="http://www.w3.org/2000/svg"
 width="817.000000pt" height="817.000000pt" viewBox="0 0 817.000000 817.000000"
 preserveAspectRatio="xMidYMid meet">
<metadata>
Created by potrace 1.11, written by Peter Selinger 2001-2013
</metadata>
<g transform="translate(0.000000,817.000000) scale(0.100000,-0.100000)"
fill="#000000" stroke="none">
<path d="M5870 6890 l0 -700 800 0 800 0 0 700 0 700 -800 0 -800 0 0 -700z"/>
<path d="M4460 6979 c-684 -410 -736 -446 -811 -562 -45 -69 -72 -139 -189
-485 l-89 -262 251 2 251 3 62 178 c37 106 72 188 86 204 53 57 205 100 314
88 141 -16 195 -71 146 -150 -10 -16 -168 -197 -352 -401 -368 -408 -369 -409
-369 -540 0 -176 75 -226 226 -149 68 35 1308 912 1331 942 7 9 31 71 53 139
l41 123 135 140 134 139 0 396 0 396 -442 0 -443 0 -335 -201z"/>
<path d="M2752 4428 l3 -1063 1238 -3 1237 -2 0 1065 0 1065 -49 0 c-58 0 2
39 -593 -387 -293 -209 -496 -347 -545 -371 -72 -34 -85 -37 -168 -37 -80 0
-95 3 -137 27 -114 67 -153 154 -153 333 1 166 29 233 154 375 l52 60 -520 0
-521 0 2 -1062z"/>
<path d="M1490 4118 c-12 -24 -169 -376 -349 -783 l-329 -740 3176 -3 c1746
-1 3177 0 3180 2 5 6 -675 1539 -690 1554 -9 9 -145 12 -535 12 l-523 0 0
-265 0 -264 153 -3 152 -3 64 -213 c35 -117 62 -215 59 -217 -3 -3 -839 -4
-1860 -3 l-1854 3 60 205 c34 113 65 211 69 218 6 9 49 12 158 12 l149 0 0
265 0 265 -530 0 -530 0 -20 -42z"/>
<path d="M810 1670 l0 -700 3195 0 3195 0 0 700 0 700 -3195 0 -3195 0 0 -700z"/>
</g>
</svg>
